<?xml version="1.0" encoding="UTF-8" standalone="no"?>
<svg
   xmlns:dc="http://purl.org/dc/elements/1.1/"
   xmlns:cc="http://creativecommons.org/ns#"
   xmlns:rdf="http://www.w3.org/1999/02/22-rdf-syntax-ns#"
   xmlns:svg="http://www.w3.org/2000/svg"
   xmlns="http://www.w3.org/2000/svg"
   xmlns:sodipodi="http://sodipodi.sourceforge.net/DTD/sodipodi-0.dtd"
   xmlns:inkscape="http://www.inkscape.org/namespaces/inkscape"
   width="1063.882"
   height="599.449"
   viewBox="0 0 1063.882 599.449"
   version="1.1"
   id="svg34"
   sodipodi:docname="home-blob-flip.svg"
   inkscape:version="1.0.1 (1.0.1+r74)">
  <metadata
     id="metadata38">
    <rdf:RDF>
      <cc:Work
         rdf:about="">
        <dc:format>image/svg+xml</dc:format>
        <dc:type
           rdf:resource="http://purl.org/dc/dcmitype/StillImage" />
        <dc:title />
      </cc:Work>
    </rdf:RDF>
  </metadata>
  <sodipodi:namedview
     pagecolor="#ffffff"
     bordercolor="#666666"
     borderopacity="1"
     objecttolerance="10"
     gridtolerance="10"
     guidetolerance="10"
     inkscape:pageopacity="0"
     inkscape:pageshadow="2"
     inkscape:window-width="640"
     inkscape:window-height="480"
     id="namedview36"
     showgrid="false"
     inkscape:zoom="1.0476288"
     inkscape:cx="455.62281"
     inkscape:cy="352.90512"
     inkscape:current-layer="cool-background"
     inkscape:document-rotation="0" />
  <defs
     id="defs24">
    <filter
       id="Path_3"
       x="0"
       y="0"
       width="1063.882"
       height="599.449"
       filterUnits="userSpaceOnUse">
      <feOffset
         dy="5"
         input="SourceAlpha"
         id="feOffset2" />
      <feGaussianBlur
         stdDeviation="7.5"
         result="blur"
         id="feGaussianBlur4" />
      <feFlood
         flood-opacity="0.251"
         id="feFlood6" />
      <feComposite
         operator="in"
         in2="blur"
         id="feComposite8"
         result="result1" />
      <feComposite
         in="SourceGraphic"
         in2="result1"
         id="feComposite10" />
    </filter>
    <filter
       id="Path_6"
       x="61.201"
       y="85.157"
       width="864.12"
       height="505.297"
       filterUnits="userSpaceOnUse">
      <feOffset
         dy="5"
         input="SourceAlpha"
         id="feOffset13" />
      <feGaussianBlur
         stdDeviation="7.5"
         result="blur-2"
         id="feGaussianBlur15" />
      <feFlood
         flood-opacity="0.251"
         id="feFlood17" />
      <feComposite
         operator="in"
         in2="blur-2"
         id="feComposite19"
         result="result1" />
      <feComposite
         in="SourceGraphic"
         in2="result1"
         id="feComposite21" />
    </filter>
  </defs>
  <g
     id="cool-background"
     transform="translate(22.5 17.5)">
    <g
       transform="matrix(1, 0, 0, 1, -22.5, -17.5)"
       filter="url(#Path_3)"
       id="g28">
      <path
         id="Path_3-2"
         style="fill:#ffffff"
         d="M 804.91406 17.517578 C 751.69277 18.050021 698.49761 30.434938 656.14453 56.583984 C 513.48153 144.66498 269.97208 160.91172 150.58008 201.51172 C 70.986078 228.58105 28.319411 295.42182 22.580078 402.03516 L 22.582031 402.03516 C 18.318031 515.31116 178.52641 571.94922 503.20508 571.94922 C 990.21808 571.94922 1015.0405 338.93853 1039.7695 187.76953 C 1057.1571 81.478828 930.9645 16.256529 804.91406 17.517578 z M 686.46289 102.67383 C 790.95022 101.62608 903.90312 155.77203 902.82031 244.01562 C 901.28031 369.51763 909.93014 562.96094 505.61914 562.96094 C 236.07447 562.96094 95.960104 515.94039 85.273438 421.90039 L 85.269531 421.89648 C 76.644198 333.38715 103.67094 277.89649 166.34961 255.42383 C 260.36861 221.71483 460.48238 208.23142 567.85938 135.10742 C 599.73692 113.39873 642.34602 103.11621 686.46289 102.67383 z " />
    </g>
    <g
       transform="matrix(1, 0, 0, 1, -22.5, -17.5)"
       filter="url(#Path_6)"
       id="g31" />
  </g>
</svg>
