<?xml version="1.0" encoding="UTF-8" standalone="no"?>
<!-- Generator: Adobe Illustrator 16.0.0, SVG Export Plug-In . SVG Version: 6.00 Build 0)  -->

<svg
   version="1.1"
   id="Layer_5"
   x="0px"
   y="0px"
   width="512px"
   height="512px"
   viewBox="0 0 512 512"
   enable-background="new 0 0 512 512"
   xml:space="preserve"
   sodipodi:docname="strava2.svg"
   inkscape:version="1.2.1 (9c6d41e410, 2022-07-14)"
   xmlns:inkscape="http://www.inkscape.org/namespaces/inkscape"
   xmlns:sodipodi="http://sodipodi.sourceforge.net/DTD/sodipodi-0.dtd"
   xmlns="http://www.w3.org/2000/svg"
   xmlns:svg="http://www.w3.org/2000/svg"><defs
   id="defs13" /><sodipodi:namedview
   id="namedview11"
   pagecolor="#ffffff"
   bordercolor="#000000"
   borderopacity="0.25"
   inkscape:showpageshadow="2"
   inkscape:pageopacity="0.0"
   inkscape:pagecheckerboard="0"
   inkscape:deskcolor="#d1d1d1"
   showgrid="false"
   inkscape:zoom="1.1200461"
   inkscape:cx="156.24357"
   inkscape:cy="300.88047"
   inkscape:window-width="1904"
   inkscape:window-height="983"
   inkscape:window-x="8"
   inkscape:window-y="8"
   inkscape:window-maximized="1"
   inkscape:current-layer="Layer_5" />

<g
   id="g188"
   transform="matrix(0.98238024,0,0,0.98238024,74.416392,4.5058158)"
   style="stroke:#000000;stroke-width:8.42376;stroke-dasharray:none;stroke-opacity:1"><path
     d="m 252.41564,512.00986 a 10.666872,10.666872 0 0 1 -9.55752,-5.95211 L 139.15479,295.21636 a 10.645538,10.645538 0 0 1 9.55752,-15.36029 h 62.50787 a 10.666872,10.666872 0 0 1 9.57885,5.97344 l 31.55261,64.70525 31.08326,-64.64125 a 10.645538,10.645538 0 0 1 9.60018,-6.03744 h 62.48654 a 10.666872,10.666872 0 0 1 9.57885,15.33896 L 261.99449,506.03642 a 10.666872,10.666872 0 0 1 -9.57885,5.97344 z M 165.82197,301.16848 252.3943,477.10786 338.43329,301.16848 h -38.67808 l -37.71806,78.4655 c -1.7707,3.69074 -5.93078,5.54678 -9.60018,6.03745 a 10.666872,10.666872 0 0 1 -9.57885,-5.97344 l -38.3154,-78.52951 z"
     id="path2"
     style="stroke:#000000;stroke-width:8.42376;stroke-dasharray:none;stroke-opacity:1" /><path
     d="m 293.01375,301.16848 h -81.81491 a 10.688206,10.688206 0 0 1 -9.49351,-5.78145 l -47.57425,-92.84445 -48.00092,92.86578 a 10.709539,10.709539 0 0 1 -9.472187,5.78145 H 14.18172 A 10.624204,10.624204 0 0 1 4.6455366,285.76551 L 144.61623,5.9307956 A 10.602871,10.602871 0 0 1 154.15241,1.483845e-5 h 0.0213 A 10.666872,10.666872 0 0 1 163.70993,5.9094619 L 302.5926,285.74418 a 10.730873,10.730873 0 0 1 -9.57885,15.4243 z m -75.28678,-21.33375 h 58.09178 L 154.10975,34.582013 31.462053,279.83473 H 90.151182 L 144.70156,174.33937 a 10.709539,10.709539 0 0 1 9.47219,-5.78145 h 0.0213 a 10.666872,10.666872 0 0 1 9.47218,5.78145 z"
     id="path4"
     style="stroke:#000000;stroke-width:8.42376;stroke-dasharray:none;stroke-opacity:1" /></g></svg>
